<?xml version="1.0" encoding="UTF-8"?>
<svg width="64px" height="64px" viewBox="0 0 64 64" version="1.1" xmlns="http://www.w3.org/2000/svg" xmlns:xlink="http://www.w3.org/1999/xlink">
    <g id="icon" stroke="none" stroke-width="1" fill="none" fill-rule="evenodd">
        <rect id="rect" fill="#007AD6" fill-rule="nonzero" x="0" y="0" width="64" height="64"></rect>
        <path d="M49.2369887,36.527239 L36.6908008,34.1427565 C36.6293451,34.9918699 36.5289674,35.8880994 36.4593176,36.3889636 C36.0700979,39.1923692 35.2332757,40.6078996 33.2175277,40.6078996 C30.9887331,40.6078996 29.5568145,39.4597017 29.5568145,32.421996 C29.5568145,24.7215927 30.8463607,23.4586774 33.2513283,23.4586774 C35.4893413,23.4586774 36.3456245,24.6058511 36.617054,28.9517957 C36.644709,29.4045196 37.0605595,29.7394533 37.5050893,29.6503425 L49.1857756,27.3324371 C49.6149414,27.2474233 49.890468,26.8090391 49.7614109,26.3901159 C47.988413,20.6183983 43.4540042,16 32.7432943,16 C22.0387299,16 15,21.4122015 15,31.8207541 C15,44.0299597 22.9390564,48 32.3807055,48 C42.8353498,48 48.4472825,43.5485564 49.8361821,37.4162986 C49.9283657,37.0096665 49.6466936,36.6050829 49.2369887,36.527239" id="path" fill="#FFFFFF" fill-rule="nonzero"></path>
    </g>
</svg>
